<svg xmlns="http://www.w3.org/2000/svg" viewBox="0 0 980 620"><defs><linearGradient id="b" x1="0" x2="1" y1="0" y2="1"><stop offset="0" stop-color="#17803d"/><stop offset=".55" stop-color="#064e24"/><stop offset="1" stop-color="#030303"/></linearGradient><linearGradient id="c" x1="0" x2="1"><stop offset="0" stop-color="#fff5bd"/><stop offset=".52" stop-color="#86efac"/><stop offset="1" stop-color="#6b4300"/></linearGradient><filter id="s" x="-20%" y="-20%" width="140%" height="140%"><feDropShadow dx="0" dy="18" stdDeviation="15" flood-color="#050202" flood-opacity=".55"/></filter></defs><g filter="url(#s)"><path d="M132 420C42 355 52 260 136 205C116 290 195 323 324 340C452 357 540 392 650 468C468 445 279 510 132 420Z" fill="url(#b)"/><path d="M135 207C72 123 92 48 175 22C135 103 194 152 259 187" stroke="#090302" stroke-width="26" fill="none" stroke-linecap="round"/><g transform-origin="430 280"><path d="M432 292C344 94 177 37 36 88C165 142 257 251 310 390C350 344 389 315 432 292Z" fill="#0b351b"/><path d="M430 292C328 132 222 78 89 92" stroke="#064e24" stroke-width="20" fill="none" stroke-linecap="round"/><animateTransform attributeName="transform" type="rotate" values="-2 430 280;4 430 280;-2 430 280" dur="4.4s" repeatCount="indefinite"/></g><path d="M350 382C365 273 455 211 590 210C742 209 880 308 913 430C754 512 520 512 350 382Z" fill="url(#b)"/><g transform-origin="620 282"><path d="M610 292C718 101 850 59 964 119C833 160 769 258 731 402C687 344 650 315 610 292Z" fill="#0b351b"/><path d="M612 292C706 146 788 97 920 111" stroke="#064e24" stroke-width="20" fill="none" stroke-linecap="round"/><animateTransform attributeName="transform" type="rotate" values="2 620 282;-4 620 282;2 620 282" dur="4.4s" repeatCount="indefinite"/></g><path d="M598 270C568 184 613 116 700 94C790 72 890 130 920 218C948 301 881 360 780 352C680 344 626 321 598 270Z" fill="url(#b)"/><path d="M661 118C595 66 526 43 438 36C511 105 585 142 662 148Z" fill="#090302"/><path d="M812 126C874 85 932 79 979 105C910 151 859 163 808 154Z" fill="#090302"/><path d="M690 54L717 8L746 55L786 22L792 88L842 64L815 132L876 132L817 167C760 142 710 140 658 166Z" fill="url(#c)"/><path d="M660 165C712 124 794 123 852 170C780 194 716 192 660 165Z" fill="#064e24"/><ellipse cx="710" cy="157" rx="15" ry="6" fill="#9ee6b5"/><ellipse cx="806" cy="160" rx="15" ry="6" fill="#9ee6b5"/><path d="M805 196C860 200 920 232 964 283C887 276 832 250 784 220Z" fill="#064e24"/><path d="M824 266C864 262 902 277 937 307" stroke="#030303" stroke-width="13" fill="none" stroke-linecap="round"/><path d="M838 288L854 328L872 290L892 332L909 296" fill="#fff1cf"/><path d="M475 478C452 526 416 558 364 584L506 584C520 535 536 501 576 468Z" fill="#064e24"/><path d="M710 485C698 532 662 562 610 588L754 588C765 540 784 505 828 476Z" fill="#064e24"/></g></svg>